<svg xmlns="http://www.w3.org/2000/svg" width="920" height="210" viewBox="0 0 920 210">
  <defs><marker id="a" viewBox="0 0 10 10" refX="9" refY="5" markerWidth="8" markerHeight="8" orient="auto"><path d="M0 0L10 5L0 10z" fill="#334155"/></marker></defs>
  <style>text{font-family:Arial,sans-serif;font-size:13px;fill:#0f172a}.b{fill:#f8fafc;stroke:#334155;stroke-width:1.5;rx:8}.d{fill:#fff7ed;stroke:#334155;stroke-width:1.5}.l{stroke:#334155;stroke-width:1.7;fill:none;marker-end:url(#a)}</style>
  <rect class="b" x="20" y="82" width="150" height="48"/><text x="95" y="110" text-anchor="middle">Horas apuradas</text>
  <polygon class="d" points="270,68 345,106 270,144 195,106"/><text x="270" y="102" text-anchor="middle">Existe hora</text><text x="270" y="119" text-anchor="middle">excedente?</text>
  <rect class="b" x="420" y="35" width="150" height="48"/><text x="495" y="55" text-anchor="middle">Verificar</text><text x="495" y="72" text-anchor="middle">autorizacao</text>
  <rect class="b" x="420" y="130" width="150" height="48"/><text x="495" y="158" text-anchor="middle">Fechar sem extra</text>
  <rect class="b" x="630" y="35" width="130" height="48"/><text x="695" y="55" text-anchor="middle">Autorizar</text><text x="695" y="72" text-anchor="middle">ou zerar</text>
  <rect class="b" x="800" y="82" width="100" height="48"/><text x="850" y="110" text-anchor="middle">Resumo</text>
  <path class="l" d="M170 106H195"/><path class="l" d="M345 106C380 106 380 59 420 59"/><path class="l" d="M345 106C380 106 380 154 420 154"/><path class="l" d="M570 59H630"/><path class="l" d="M760 59C780 59 780 106 800 106"/><path class="l" d="M570 154C730 154 730 106 800 106"/>
</svg>
