<svg xmlns="http://www.w3.org/2000/svg" width="920" height="210" viewBox="0 0 920 210">
  <defs><marker id="a" viewBox="0 0 10 10" refX="9" refY="5" markerWidth="8" markerHeight="8" orient="auto"><path d="M0 0L10 5L0 10z" fill="#334155"/></marker></defs>
  <style>text{font-family:Arial,sans-serif;font-size:13px;fill:#0f172a}.b{fill:#f8fafc;stroke:#334155;stroke-width:1.5;rx:8}.d{fill:#fff7ed;stroke:#334155;stroke-width:1.5}.l{stroke:#334155;stroke-width:1.7;fill:none;marker-end:url(#a)}</style>
  <rect class="b" x="20" y="82" width="150" height="48"/><text x="95" y="102" text-anchor="middle">Cadastrar</text><text x="95" y="119" text-anchor="middle">recesso</text>
  <polygon class="d" points="270,68 345,106 270,144 195,106"/><text x="270" y="102" text-anchor="middle">Usa saldo</text><text x="270" y="119" text-anchor="middle">vigente?</text>
  <rect class="b" x="420" y="35" width="150" height="48"/><text x="495" y="55" text-anchor="middle">Abater debito</text><text x="495" y="72" text-anchor="middle">com saldo</text>
  <rect class="b" x="420" y="130" width="150" height="48"/><text x="495" y="150" text-anchor="middle">Gerar debito</text><text x="495" y="167" text-anchor="middle">a compensar</text>
  <rect class="b" x="630" y="82" width="120" height="48"/><text x="690" y="110" text-anchor="middle">Autorizar</text>
  <rect class="b" x="800" y="82" width="100" height="48"/><text x="850" y="110" text-anchor="middle">Espelho</text>
  <path class="l" d="M170 106H195"/><path class="l" d="M345 106C380 106 380 59 420 59"/><path class="l" d="M345 106C380 106 380 154 420 154"/><path class="l" d="M570 59C600 59 600 106 630 106"/><path class="l" d="M570 154C600 154 600 106 630 106"/><path class="l" d="M750 106H800"/>
</svg>
